<?xml version="1.0" standalone="no"?>
<!DOCTYPE svg PUBLIC "-//W3C//DTD SVG 20010904//EN"
 "http://www.w3.org/TR/2001/REC-SVG-20010904/DTD/svg10.dtd">
<svg version="1.0" xmlns="http://www.w3.org/2000/svg"
 width="315.000000pt" height="317.000000pt" viewBox="0 0 315.000000 317.000000"
 preserveAspectRatio="xMidYMid meet">

<g transform="translate(0.000000,317.000000) scale(0.100000,-0.100000)"
fill="#000000" stroke="none">
<path d="M1290 2925 c-185 -40 -347 -108 -498 -209 -125 -83 -157 -110 -148
-125 4 -6 31 -23 59 -37 188 -94 386 -276 521 -477 43 -64 84 -117 91 -117 13
0 16 11 45 205 43 284 49 767 10 772 -8 1 -44 -5 -80 -12z"/>
<path d="M1822 2568 c-79 -118 -156 -255 -237 -419 -71 -145 -155 -345 -155
-368 0 -18 16 -13 123 38 224 107 364 141 605 148 144 4 182 8 182 19 0 26
-62 170 -107 249 -26 44 -71 113 -101 154 -62 84 -227 251 -248 251 -7 0 -35
-33 -62 -72z"/>
<path d="M405 2342 c-92 -126 -195 -378 -226 -552 -18 -98 -18 -382 0 -480 19
-110 77 -282 129 -385 45 -90 113 -198 132 -210 14 -9 183 73 260 125 186 126
354 344 466 604 l44 104 -20 53 c-101 255 -274 497 -448 629 -70 53 -193 121
-262 145 l-40 14 -35 -47z"/>
<path d="M2645 1932 c-120 -41 -216 -128 -257 -230 -17 -44 -22 -78 -23 -147
0 -79 4 -98 29 -152 35 -77 122 -163 203 -201 51 -24 70 -27 158 -27 93 0 105
2 165 32 102 50 183 142 208 236 10 36 10 37 -17 37 -25 0 -32 -8 -60 -64 -74
-151 -234 -226 -386 -181 -95 27 -170 87 -213 170 -35 68 -43 198 -17 276 27
80 121 171 200 194 76 22 192 17 257 -13 96 -42 182 -148 190 -232 l3 -35
-217 -3 -218 -2 0 -25 0 -25 243 2 242 3 3 30 c5 39 -15 130 -38 175 -23 45
-104 122 -158 149 -99 50 -211 63 -297 33z"/>
</g>
</svg>
